<?xml version="1.0" encoding="utf-8"?>
<!-- Generator: Adobe Illustrator 16.0.0, SVG Export Plug-In . SVG Version: 6.00 Build 0)  -->
<!DOCTYPE svg PUBLIC "-//W3C//DTD SVG 1.1//EN" "http://www.w3.org/Graphics/SVG/1.1/DTD/svg11.dtd">
<svg version="1.1" id="Layer_1" xmlns="http://www.w3.org/2000/svg" xmlns:xlink="http://www.w3.org/1999/xlink" x="0px" y="0px"
	 width="159.5px" height="87.75px" viewBox="0 0 159.5 87.75" enable-background="new 0 0 159.5 87.75" xml:space="preserve">
<g>
	<path fill="#FFFFFF" d="M73.456,11.762l6.609,18.186h0.071l6.562-18.186h1.912v20.384h-1.44v-17.5H87.1l-6.327,17.5h-1.393
		l-6.303-17.5h-0.094v17.5h-1.44V11.762H73.456z"/>
	<path fill="#FFFFFF" d="M105.484,14.445c1.369,1.941,2.054,4.425,2.054,7.509c0,3.083-0.685,5.596-2.054,7.537
		c-1.463,2.027-3.423,3.055-5.925,3.055s-4.485-1.028-5.925-3.083c-1.369-1.941-2.054-4.454-2.054-7.508s0.685-5.567,2.054-7.509
		c1.463-2.055,3.446-3.083,5.948-3.083C102.062,11.362,104.021,12.39,105.484,14.445z M94.721,15.53
		c-1.133,1.656-1.7,3.797-1.7,6.424c0,2.655,0.543,4.796,1.676,6.423c1.18,1.713,2.809,2.569,4.863,2.569s3.659-0.856,4.839-2.541
		c1.133-1.627,1.7-3.769,1.7-6.452s-0.566-4.854-1.7-6.452c-1.18-1.713-2.785-2.541-4.815-2.541
		C97.529,12.961,95.901,13.817,94.721,15.53z"/>
	<path fill="#FFFFFF" d="M112.138,11.762l10.197,17.672h0.071V11.762h1.464v20.384h-1.605L112.02,14.331h-0.071v17.815h-1.44V11.762
		H112.138z"/>
	<path fill="#FFFFFF" d="M129.201,11.762v20.384h-1.44V11.762H129.201z"/>
	<path fill="#FFFFFF" d="M144.945,13.132c1.322,1.199,2.077,2.798,2.29,4.796h-1.393c-0.212-1.57-0.85-2.798-1.912-3.683
		c-1.015-0.856-2.219-1.285-3.588-1.285c-2.078,0-3.683,0.885-4.863,2.655c-1.109,1.656-1.652,3.797-1.652,6.423
		s0.543,4.768,1.628,6.367c1.133,1.684,2.715,2.541,4.745,2.541c1.44,0,2.667-0.485,3.706-1.399
		c1.109-1.028,1.841-2.483,2.171-4.368h1.393c-0.354,2.341-1.227,4.197-2.644,5.539c-1.298,1.199-2.833,1.827-4.603,1.827
		c-2.526,0-4.485-1.057-5.901-3.141c-1.298-1.913-1.936-4.368-1.936-7.366s0.661-5.481,1.983-7.451
		c1.44-2.17,3.446-3.226,5.996-3.226C142.136,11.362,143.67,11.933,144.945,13.132z"/>
</g>
<g>
	<g>
		<path fill="#FFFFFF" d="M7.317,7.781c1.46,8.783,0.331,17.91,3.611,26.35c0.99,2.547,2.599,4.079,5.353,4.521
			c1.543,0.247,3.6-1.759,4.67-2.679c8.883-7.636,4.566-23.074,4.966-33.115c-0.482,0.098-0.964,0.195-1.447,0.293
			c0,3.295-0.001,6.59,0.001,9.886c0,0.406,1.449,0.144,1.449-0.389c0.003-3.295,0.002-6.59-0.001-9.886
			c0-0.405-1.423-0.136-1.447,0.293c-1.211,21.731,3.34,43.572-0.594,65.168c-1.098,6.025-2.246,14.391-9.817,14.391
			c-7.014,0-8.791-5.75-9.208-11.701c-0.7-9.991,5.586-21.209,13.441-27.062c2.213-1.649,4.492-3.09,7.013-4.217
			c3.202-1.431,7.06-1.54,10.511-1.936c6.248-0.717,12.53-1.104,18.812-1.346c11.56-0.447,23.138-0.183,34.698,0.112
			c11.574,0.295,23.145,0.631,34.724,0.474c5.425-0.074,10.855-0.274,16.268-0.658c4.288-0.304,7.503-0.29,11.159-2.437
			c0.843-0.495-0.446-0.636-0.885-0.378c-5.159,3.029-12.788,2.283-18.672,2.514c-6.298,0.247-12.604,0.265-18.906,0.212
			c-12.033-0.101-24.06-0.587-36.092-0.774c-11.686-0.182-23.373,0.003-35.024,0.961c-5.218,0.429-10.797,0.662-15.82,2.221
			c-4.061,1.261-7.568,4.015-10.911,6.538c-3.307,2.495-5.908,6.968-7.874,10.528c-2.259,4.094-3.575,8.613-3.888,13.27
			c-0.251,3.731,0.38,8.072,2.378,11.28c2.199,3.531,7.28,3.644,10.838,3.156c1.863-0.255,5.111-2.579,5.756-4.446
			c1.997-5.784,3.255-11.692,3.966-17.765c1.296-11.066,0.507-22.297-0.094-33.381c-0.451-8.305-0.798-16.61-0.334-24.923
			c-0.482,0.098-0.964,0.195-1.447,0.293c0.004,3.295,0.004,6.59,0.001,9.886c0.483-0.129,0.966-0.259,1.449-0.389
			c-0.003-3.295-0.002-6.59-0.001-9.886c0-0.403-1.43-0.138-1.447,0.293c-0.373,9.355,2.235,19.434-1.56,28.356
			c-1.157,2.721-3.269,4.802-5.798,6.264c-2.029,1.173-4.181-2.69-4.739-3.933c-0.691-1.54-1.11-3.193-1.501-4.828
			C9.197,21.9,9.947,14.494,8.766,7.393C8.69,6.939,7.234,7.281,7.317,7.781L7.317,7.781z"/>
	</g>
</g>
<g>
	<g>
		<path fill="#FFFFFF" d="M39.94,14.451c-8.434-1.902-12.245,9.837-9.382,16.103c1.321,2.893,5.204,4.71,8.136,3.127
			c3.775-2.039,5.376-6.842,5.772-10.88c0.228-2.325,0.122-11.499-3.668-11.225c-2.625,0.189-3.082,3.133-3.119,5.279
			c-0.067,3.921,3.623,5.892,7.179,4.938c4.2-1.125,5.603-6.367,6.535-10.021c-0.528,0.116-1.056,0.233-1.584,0.35
			c-0.047,3.604-2.626,19.451,3.351,19.779c2.336,0.128,3.878-1.607,5.009-3.431c2.958-4.771,3.31-11.364,2.764-16.775
			c-0.033-0.327-1.638-0.017-1.594,0.427c0.612,6.158-0.269,17.222,6.698,20.137c0.357,0.149,1.804-0.424,1.306-0.633
			c-6.684-2.796-5.825-14.044-6.41-19.931c-0.531,0.142-1.062,0.285-1.594,0.427c0.45,4.46,0.085,8.833-1.228,13.127
			c-0.855,2.799-4.153,8.625-6.161,3.455c-2.002-5.155-0.619-11.631-0.548-17.009c0.004-0.311-1.495,0.002-1.584,0.35
			c-0.608,2.384-1.341,4.69-2.587,6.824c-2.391,4.095-7.461,2.171-7.931-1.861c-0.128-1.098,0.056-2.219,0.343-3.275
			c0.228-0.839,0.344-1.619,0.976-1.06c2.08,1.841,2.416,6.335,2.381,8.909c-0.038,2.756-0.803,5.513-1.936,8.008
			c-0.86,1.895-2.563,4.473-5.189,3.798c-1.589-0.408-2.95-1.909-3.724-3.261c-2.335-4.082-0.413-16.599,6.483-15.043
			C39.016,15.169,40.413,14.558,39.94,14.451L39.94,14.451z"/>
	</g>
</g>
<g>
</g>
<g>
</g>
<g>
</g>
<g>
</g>
<g>
</g>
<g>
</g>
</svg>
